/* XPM */
static char * openmsx0048_xpm[] = {
"256 8 2 1",
" 	c #2B2BFF",
".	c #FFFFFF",
"       .                  .                 .           .    .            .                                                                                                                          .           .                                              ",
"       .                  .                 .           .    .            .                                                                                                                          .           .                                              ",
"       .      ...   ...   .  .        ...  ....        ....  ....   ...  ....        .   .  ...  .   .  ...                                                        .  .  . ..         ...  . ..   .. .        .. .  ...  .   . . ..                             ",
"       .     .   . .   .  . .            .  .           .    .   .     .  .          . . .     . .   . .   .                                                       .  .  ..  .           . ..  . .  ..       .  .. .   . . . . ..  .                            ",
"       .     .   . .   .  ..          ....  .           .    .   .  ....  .          . . .  .... .   . .....                                                       .  .  ..  .        .... .   . .   .       .   . .   . . . . .   .                            ",
"       .     .   . .   .  . .        .   .  .  .        .  . .   . .   .  .  .       . . . .   .  . .  .                                                           .  .  . ..        .   . .   . .  ..       .  .. .   . . . . .   .                            ",
"       .....  ...   ...   .  .        ....   ..          ..  .   .  ....   ..         . .   ....   .    ...    .  .  .  .  .  .  .                                  .. . .            .... .   .  .. .        .. .  ...   . .  .   .  .  .  .  .  .             ",
"                                                                                                                                                                         .                                                                                      "};
